M48
;Layer_Color=9474304
;FILE_FORMAT=4:4
METRIC,LZ
;TYPE=PLATED
T01F00S00C0.2000
T02F00S00C0.2500
T03F00S00C0.7340
T04F00S00C0.8128
T05F00S00C0.9000
T06F00S00C1.0500
T07F00S00C1.1176
T08F00S00C1.3000
T09F00S00C1.4000
T10F00S00C1.5500
T11F00S00C1.6000
T12F00S00C3.5000
;TYPE=NON_PLATED
T13F00S00C0.9000
T14F00S00C3.2000
%
T01
X0030099Y0022825
Y0023625
X0030899
X0029299
X0030099Y0024425
X00645Y006045
Y00616
Y006275
X006565Y00616
X006335
X007285Y005425
X0074
Y00531
Y00554
X007515Y005425
T02
X00943Y00176
X009425Y0018725
X00942Y001965
X0093675Y0020975
X01015Y0022
X01033Y00222
X01053Y00223
X01086Y00258
X010925Y0026325
X01089Y0027
X01084Y00271
X01089Y00278
X010825Y0028225
X01097Y00274
X011Y00267
X01104Y0027
X01208Y00261
X01209Y00205
X0123Y0019
X01252Y00186
Y00162
X01287Y00188
X01284Y00252
X0126975Y0025875
X012625Y0010625
X01276Y00097
X01207Y00098
X0092Y0019
X00907Y00191
X00894Y0019
X00882
X00871Y00196
X0087225Y0025925
X008655Y002625
X008905Y002765
X0089125Y002845
X0088625Y00284
X00887Y00292
X00891
X00929Y0021075
X008456Y00153
X00838Y00132
X00834Y00118
X00819Y00104
X00622Y00094
X005974Y001284
X00572Y00135
X00555Y00154
X00553Y00171
X00545Y00225
X0054Y00243
X00558Y00245
X00574399Y0024948
X00597622Y00241968
X00607Y00251
X00636Y00255
X00649Y00256
X00652Y00237
X00636Y00231
X00664088Y00264696
X00681Y00262
X00594Y00291
X00584Y00294
X00571Y003
X00550067Y00298381
X00533Y00272
X0052Y00271
X00515Y00284
X00475149Y00287649
X00455Y00291
X00451Y00279
X00431Y00284
X00395Y00268
X00401Y00249
X00396Y00235
X0039875Y002165
X0040463Y0021664
X0039263
X0038663
X00386Y00174
X00376
X00365
X00402Y0017425
X00393Y00103
X0035565Y0008595
X00355Y00066
X0035Y00036
X00314225Y00103775
X00298Y00192
X00291804Y00191804
X00282Y00199
X00271Y00203
X0028475Y0024375
X00299Y00249
X0029725Y00273
X00304263Y0027609
X00283Y00269
X002705Y00291
X00182Y00287
X00181Y00298
X0017Y00297
X00169Y00289
X0015625Y002645
X00146Y0026425
X0015275Y0025675
X00194Y00205
X00188Y00193
X00256Y00151
X00316245Y00224755
X0033475Y0023875
X0037Y00259
X00518Y00231
X00507Y00087
X00107Y00197
X00115Y00206
X00105Y00214
X00091Y00207
X00082Y00186
X00141Y00257
X00105Y00428
X0006125Y00424
X00051Y00436
X00053Y00524
X00058Y00535
X00062Y00569
X00048Y00568
Y00583
X00046Y00668
X00056Y00667
X00057Y00684
X00046Y00681
X00101Y00693
X00139Y00658
X00145Y00665
X0015Y00674
X00208Y0065
Y00641
X00203Y00644
X00224Y00656
X00242Y006685
X0024425Y0061225
X00236165Y00614165
X00265Y00614
X00271Y00613
X00278Y00615
X00298Y00605
Y00582
X00315Y0063
X00324Y00646
X0034Y00644
X00345Y0065
X0039Y00649
X0039142Y0065642
X00387921Y00641393
X00388Y00632
X004Y0061
X00415Y00576
X0043Y00574
X00447
X0047825Y0057025
X004785Y00561
X00485Y0056575
X00526Y00566
X00525Y00571
X0053125Y0056
X00528Y0052
X0053Y00452
X00528Y0044
X00537Y00441
X00510516Y00440516
X00458889Y00454032
X00461Y00461
X00454Y00469
X00475Y00475
X00467Y00488
X00442Y00503
X00427Y00493
X00425Y00427
X00432Y00391
X00428Y00367
X0042375Y0035925
X004175Y0035375
X00397Y00355
X0044556Y0033781
X00458228Y00338522
X004625Y00343
X00462399Y00362351
X00466399Y00367351
X0047225Y0038
X004795Y0038275
X00482Y00392
X00461583Y00388309
X0048825Y0035975
X00497499Y00350499
X00502Y00355
X00511Y00356
X00503309Y00368068
X0051952Y00334848
X005355Y00316
X00472237Y00318318
X0034Y00321
X00326Y0031
X00271Y00343
X00261Y00337
X00218Y00386
X00207
X00198Y00385
X00178Y00412
X00165Y00444
X00147Y0044291
X00149Y00473
Y00485
X00167Y00487
X00164Y00497
X00165Y00525
X00146Y00526
X00178Y00566
X00188Y00571
X00214Y00534
X00216Y00515
X00201Y00483
X00195Y0046
X00208Y00428
X00229Y00429
X00236Y00432
X00235Y00424
X00227Y00418
X00283Y0042
X00281Y00461
X0026Y00464
X00261Y00493
X00307Y00488
X00309Y00472
X00302Y0066
X00403Y00697
X00409Y00696
X0043303Y0069497
X0044Y00658
X00449Y0065
Y00639
X0045Y00627
X004669Y006314
X00474Y0064675
X004795
X0047475Y006005
X00455Y00607
X00459Y00611
X00503Y00614
X00505Y00609912
X00473Y00699
X00534Y00396
X0054375Y004085
X0056Y00424436
X00541Y00444
X00549Y00502
X00568Y00484
X00595Y00463
X00604Y00458
X00626Y00454
X00641076Y00454076
X0064Y00429
X00666Y00433
X00702Y00428
X00707199Y00416801
X00682Y00386
X00669043Y00355438
X0065925Y00347
X00647Y00341
X00621196Y00335804
X00603Y00332
X006Y00321
X00589832Y00323924
X00587Y00343
X00594Y00358
X00591Y00369
Y0039
X00588Y0039825
X0057725Y0039325
X0057025Y003855
X0055Y0038
X00546Y0037
X00557Y00367
X00566Y00358
X00574Y0036
X00572Y00309
X00543Y00304
X00628Y00315
X006885Y0031825
X0069475Y0032325
X00774Y00324
X00764Y00312
X00842Y00322
X00841Y0033
X0085Y00324
Y00338
X0083525Y00343
X00831Y00355
X00847
X00841Y00369
X00842Y00379
X00859Y00393
X00878Y00394
X00873Y00381
X00875Y00375
X00885Y0037
X00892Y00367
X00896Y00377
X00919Y00382
X0092Y0039
X00935Y00389
X00928Y00409
X00926Y00421
X00929Y00435
X00897Y00426
X00896Y00417
X0089Y00412
X00882Y00409
X00885Y00418
X00887Y00423
X00878
X00855
X00847Y00429
X00846Y00443
X00847Y00453
X008605Y00455
X00884Y00462
X00896Y00461
X00905Y00494
Y00552
X00897Y00551
X0088Y00552
Y00568
X00892
X00904Y00569
X00909Y00631
X00921Y00645
X0092Y00684
X00810875Y0064
X008157Y00632
X0081375Y006115
X0081125Y0060275
X008145Y0059625
X00805Y00597
X00801Y00594
X0079975Y006
X007935Y00595
X00783363Y00597637
X00785Y00601
X0078Y006
Y00595
X007765Y0060375
X00763293Y00607942
X0075825Y0061475
X00767Y0061875
X0074425Y0061425
X00734Y006163
X00733Y00626
X00734Y00642
X00757Y0063975
X00752Y00667
X00751Y00681
X0076Y00675
X00762Y00687
X00713Y00689
X00708Y00681
X00721Y00673
Y00699
X00696Y00654
X00694Y006305
X00704Y00623
X00714586Y00612246
X007195Y00608
X00719Y0060385
X007234Y0059425
X0072875Y0057715
X007375Y00575634
X00719034Y00573245
X00711541Y00574565
X0071075Y00562
X0070952Y00554
X00707537Y00547
X00697Y00527
X0069075Y00512
X00691Y0050725
X0068725
X006815Y005085
X00669Y00495
X00656Y00501
X00659Y00537
X00644Y00534
X0063225Y0054725
X0062275
X00616Y0055
X00619Y00598
X0063Y00589
X0063798Y00586
X00648Y00589
X00691Y0057825
X0069325Y0057075
X0069775Y00574
X00672716Y00551
X00681306Y00623444
X006835Y00638
X00655Y00657
X00647Y0065547
X00639Y00659
X00631183Y00653463
X00632Y00645
X006425Y006465
X00622Y00641
X00618Y00637
Y00648
X00591Y00656
X0057248Y00655
X0057206Y00641
X0057152Y00622
X00556Y00614
X00555Y00638
X00543Y00668
X00571Y0068
X0058Y00686
X00650309Y00684192
X0065125Y0067825
X0065225Y0069352
X00584Y0058335
X006Y00426
X00603Y00391
X00614Y00387
X00669Y00471
X00753Y00477
X0076075Y00479
X00761Y00474
X00767Y00475
X00766Y0048
X00773Y00475
X0078125Y0050175
X0078875Y00501
X0081275Y00506
X00813Y005155
Y0052175
X00807Y00555
X00796Y005535
X00784Y005626
X0076783Y0056017
X00774647Y0058025
X00749804Y00603804
X00829Y0058725
Y00566
X00749699Y00506301
X00734Y00506
X00739Y00493
X00748Y00492
X00911Y00411
X00912Y00316
X0090825Y00309
X0092
X0093Y0031
X00933Y00318
X00923Y00317
X00938Y00311
X00989Y00324
X01007Y00315
X01033Y0032
X01047Y00322
X01061Y00316
X01058Y00333
X01057Y0036
X01036Y00355
X01033Y00337
X01028Y00392
X01051Y00398
X0105Y00429
X01036Y00422
X01028Y00446
X01048Y00462
Y00555
X01027
X01024Y00578
X01048Y00579
X01077Y00581
X01068Y00558
X01118Y00552
X01109Y00579
X01131Y00585
X01117Y00655
X01113Y00684
X01131Y00678
X01158Y0068
X0116Y00656
X01196Y00641
X01241Y00638
X01253Y00632
Y00609
X01286Y00633
X01276Y00548
X01264Y00557
X01203Y00558
X01215Y00477
X01246Y0049
X01259Y00484
X0125925Y00461
X0129Y00485
X01282Y00398
X0126625Y0039825
X01212Y00402
X01207Y00345
X01257Y00342
X01253Y00352
X01258Y00317
X01291Y00342
X00954Y00416
X0094Y00414
X00943Y00429
X00959Y00432
X00966Y00673
X00987Y0068
X0101Y00676
X01042Y00663
X01067Y00666
X01091Y00699
X01032Y00637
X00945Y00681
X00941Y00702
X01113Y0071
X01131Y00719
X01119Y00734
X01149Y00709
X00909Y00717
X00888Y00715
X00867Y00721
X00861Y00735
X00864Y00748
X00874Y00761
X00913Y00757
X0076Y00701
X0070875Y006995
X00707Y00707
X00712Y00706
X0071Y00711
X006725Y007265
X00665Y00725
X0066475Y0073225
X00659Y0073
X00655Y00715
Y00711
X0065Y00708
X00641
X00645Y00715
X00629Y00741
X00627Y00751
X00624Y0076448
X00618909Y00731583
X00586Y00734
X0057Y00767
X0054Y00752
X00558Y0071
X005335Y007475
X00499Y00734
X00492Y00727
X0047Y00703
X00462Y00704
X0045Y00705
X0045125Y0072025
X00419Y00723
X00404Y00718
X00377
X003612Y007048
X00262Y007
X00252
X00247Y007005
X00236Y00705
X00235Y00724
X00256Y0073
X00273Y00727
X00124Y00707
X00111Y00701
T03
X01229102Y0012385
Y0014925
Y0017465
X01310382
Y0014925
Y0012385
X01313382Y0028185
X01232102
Y0030725
Y0033265
X01313382
Y0030725
X01315382Y0042285
Y0044825
Y0047365
X01234102
Y0044825
Y0042285
X01228Y00568
Y005934
Y006188
X0130928
Y005934
Y00568
T04
X00572Y000357
X005974
X006228
X006482
X005282
X005028
X004774
X00452
X0012827Y0037595
X0010287
X0007747
X0005207
X0002667
X0015367
X0024638Y0074044
X0027178
X0029718
X0032258
X0038354Y0073917
X0040894
X0043434
X0045974
T05
X0016231Y0014202
Y0016742
Y0019282
Y0021822
X0013691Y0020552
Y0018012
Y0015472
Y0023092
T06
X006805Y00746
X007055
X00788Y00747
X00813
T07
X0135027Y0010099
Y0020259
Y0025399
Y0035559
Y0039699
Y0049859
Y0054199
Y0064359
T08
X01631808Y00127
Y00177
Y00286
Y00336
Y00425391
Y00475391
Y00569
Y00619
T09
X01381Y00111
Y001872
Y0027063
X014826
X015588
Y00111
X014826
Y0041
X015588
Y00552
X014826
X01381
Y004862
Y0041
Y0034683
Y006282
T10
X014752Y00695
X01526
X015768
X010698Y00704
X01019
X009682
T11
X0004291Y0010897
Y0026397
T12
X01649999Y000395
X00039999
X01649999Y007395
X0004Y0074
T13
X0005461Y004585
Y005025
X000485Y00603
Y00647
X00523Y00693
Y00763
T14
X0007341Y0012932
Y0024362
M30
